<svg xmlns="http://www.w3.org/2000/svg" xmlns:xlink="http://www.w3.org/1999/xlink" width="50" zoomAndPan="magnify" viewBox="0 0 37.5 37.499999" height="50" preserveAspectRatio="xMidYMid meet" version="1.0"><defs><clipPath id="ec908860d8"><path d="M 21 13 L 36.820312 13 L 36.820312 26 L 21 26 Z M 21 13 " clip-rule="nonzero"/></clipPath><clipPath id="86bc799f1e"><path d="M 0.554688 13 L 16 13 L 16 26 L 0.554688 26 Z M 0.554688 13 " clip-rule="nonzero"/></clipPath><clipPath id="30c3e1c5fc"><path d="M 5 8.921875 L 32 8.921875 L 32 28.167969 L 5 28.167969 Z M 5 8.921875 " clip-rule="nonzero"/></clipPath></defs><g clip-path="url(#ec908860d8)"><path fill="#0097c4" d="M 25.40625 25.765625 C 23.800781 25.765625 22.945312 25.667969 22.414062 25.097656 C 21.882812 24.53125 21.929688 23.773438 21.996094 22.730469 C 22.027344 22.273438 22.0625 21.703125 22.0625 21.03125 C 22.0625 20.566406 22.109375 20.109375 22.199219 19.65625 C 22.292969 19.203125 22.425781 18.761719 22.601562 18.332031 C 22.78125 17.90625 22.996094 17.5 23.253906 17.117188 C 23.511719 16.730469 23.804688 16.375 24.128906 16.046875 C 24.457031 15.722656 24.8125 15.429688 25.199219 15.171875 C 25.582031 14.914062 25.988281 14.699219 26.414062 14.519531 C 26.84375 14.34375 27.285156 14.210938 27.738281 14.117188 C 28.191406 14.027344 28.648438 13.980469 29.113281 13.980469 C 29.640625 13.980469 30.164062 13.964844 30.667969 13.945312 C 32.644531 13.878906 34.347656 13.816406 35.429688 14.859375 C 36.046875 15.464844 36.347656 16.320312 36.347656 17.488281 C 36.347656 21.507812 29.234375 25.765625 25.40625 25.765625 Z M 23.589844 24.003906 C 23.714844 24.078125 24.136719 24.160156 25.40625 24.160156 C 28.703125 24.160156 34.742188 20.238281 34.742188 17.488281 C 34.742188 16.777344 34.601562 16.296875 34.3125 16.015625 C 33.722656 15.445312 32.332031 15.492188 30.722656 15.550781 C 30.207031 15.566406 29.667969 15.585938 29.117188 15.585938 C 28.761719 15.589844 28.40625 15.625 28.054688 15.691406 C 27.707031 15.761719 27.367188 15.867188 27.035156 16.003906 C 26.707031 16.140625 26.394531 16.308594 26.097656 16.507812 C 25.796875 16.707031 25.523438 16.929688 25.269531 17.183594 C 25.019531 17.4375 24.792969 17.710938 24.59375 18.007812 C 24.394531 18.304688 24.226562 18.617188 24.089844 18.949219 C 23.953125 19.277344 23.851562 19.617188 23.78125 19.96875 C 23.710938 20.320312 23.675781 20.671875 23.675781 21.03125 C 23.675781 21.753906 23.636719 22.351562 23.605469 22.835938 C 23.574219 23.320312 23.53125 23.84375 23.589844 24.003906 Z M 23.589844 24.015625 Z M 23.589844 24.015625 " fill-opacity="1" fill-rule="nonzero"/></g><g clip-path="url(#86bc799f1e)"><path fill="#0097c4" d="M 11.597656 25.765625 C 7.769531 25.765625 0.65625 21.507812 0.65625 17.488281 C 0.65625 16.320312 0.957031 15.460938 1.578125 14.859375 C 2.65625 13.816406 4.363281 13.878906 6.335938 13.945312 C 6.84375 13.964844 7.367188 13.980469 7.894531 13.980469 C 8.355469 13.980469 8.8125 14.027344 9.269531 14.117188 C 9.722656 14.210938 10.164062 14.34375 10.589844 14.519531 C 11.015625 14.699219 11.421875 14.914062 11.808594 15.171875 C 12.191406 15.429688 12.546875 15.722656 12.875 16.046875 C 13.203125 16.375 13.496094 16.730469 13.753906 17.117188 C 14.007812 17.5 14.226562 17.90625 14.402344 18.332031 C 14.582031 18.761719 14.714844 19.203125 14.804688 19.65625 C 14.898438 20.109375 14.941406 20.566406 14.945312 21.03125 C 14.945312 21.703125 14.980469 22.273438 15.007812 22.730469 C 15.074219 23.773438 15.125 24.535156 14.59375 25.097656 C 14.058594 25.660156 13.199219 25.765625 11.597656 25.765625 Z M 4.949219 15.515625 C 3.933594 15.515625 3.113281 15.613281 2.691406 16.015625 C 2.402344 16.296875 2.261719 16.777344 2.261719 17.488281 C 2.261719 20.238281 8.300781 24.160156 11.597656 24.160156 C 12.871094 24.160156 13.292969 24.078125 13.402344 24.003906 C 13.460938 23.84375 13.429688 23.308594 13.402344 22.835938 C 13.378906 22.359375 13.335938 21.753906 13.335938 21.027344 C 13.335938 20.671875 13.300781 20.316406 13.230469 19.96875 C 13.160156 19.617188 13.054688 19.277344 12.917969 18.945312 C 12.78125 18.617188 12.613281 18.304688 12.414062 18.007812 C 12.214844 17.710938 11.992188 17.4375 11.738281 17.183594 C 11.484375 16.929688 11.210938 16.707031 10.914062 16.507812 C 10.617188 16.308594 10.304688 16.140625 9.972656 16.003906 C 9.644531 15.867188 9.304688 15.761719 8.953125 15.695312 C 8.605469 15.625 8.25 15.589844 7.894531 15.585938 C 7.335938 15.585938 6.800781 15.566406 6.289062 15.550781 C 5.8125 15.535156 5.367188 15.515625 4.949219 15.515625 Z M 4.949219 15.515625 " fill-opacity="1" fill-rule="nonzero"/></g><path fill="#024a7f" d="M 18.519531 9.746094 L 31.148438 14.644531 C 29.46875 21.511719 25.199219 25.660156 18.519531 27.277344 C 11.835938 25.660156 7.566406 21.511719 5.886719 14.644531 Z M 18.519531 9.746094 " fill-opacity="1" fill-rule="nonzero"/><g clip-path="url(#30c3e1c5fc)"><path fill="#0097c4" d="M 18.519531 28.078125 C 18.453125 28.078125 18.390625 28.074219 18.328125 28.058594 C 11.285156 26.351562 6.835938 21.902344 5.109375 14.835938 C 5.0625 14.640625 5.082031 14.453125 5.175781 14.277344 C 5.269531 14.097656 5.410156 13.96875 5.597656 13.898438 L 18.226562 8.996094 C 18.421875 8.921875 18.617188 8.921875 18.808594 8.996094 L 31.4375 13.898438 C 31.625 13.96875 31.765625 14.097656 31.859375 14.273438 C 31.953125 14.453125 31.976562 14.640625 31.929688 14.835938 C 30.199219 21.902344 25.75 26.351562 18.707031 28.058594 C 18.644531 28.074219 18.582031 28.078125 18.519531 28.078125 Z M 6.84375 15.136719 C 8.535156 21.195312 12.351562 24.902344 18.519531 26.449219 C 24.679688 24.902344 28.507812 21.195312 30.191406 15.136719 L 18.519531 10.605469 Z M 6.84375 15.136719 " fill-opacity="1" fill-rule="nonzero"/></g><path fill="#0097c4" d="M 24.058594 21.789062 C 23.867188 21.789062 23.683594 21.753906 23.507812 21.679688 C 23.332031 21.609375 23.179688 21.503906 23.042969 21.371094 C 22.910156 21.234375 22.804688 21.082031 22.734375 20.90625 C 22.660156 20.730469 22.625 20.546875 22.625 20.359375 C 22.625 20.167969 22.660156 19.984375 22.734375 19.808594 C 22.804688 19.632812 22.910156 19.480469 23.042969 19.34375 C 23.175781 19.210938 23.332031 19.109375 23.507812 19.035156 C 23.683594 18.960938 23.867188 18.925781 24.054688 18.925781 C 24.246094 18.925781 24.429688 18.960938 24.605469 19.035156 C 24.777344 19.109375 24.933594 19.210938 25.066406 19.347656 C 25.203125 19.480469 25.304688 19.636719 25.378906 19.8125 C 25.449219 19.988281 25.488281 20.167969 25.488281 20.359375 C 25.484375 20.550781 25.449219 20.730469 25.378906 20.90625 C 25.304688 21.082031 25.199219 21.234375 25.066406 21.371094 C 24.933594 21.503906 24.777344 21.605469 24.605469 21.679688 C 24.429688 21.753906 24.246094 21.789062 24.058594 21.789062 Z M 24.058594 20.019531 C 23.964844 20.015625 23.882812 20.050781 23.816406 20.113281 C 23.746094 20.179688 23.714844 20.261719 23.710938 20.355469 C 23.710938 20.449219 23.742188 20.527344 23.808594 20.597656 C 23.871094 20.664062 23.953125 20.699219 24.046875 20.699219 C 24.140625 20.703125 24.222656 20.671875 24.289062 20.605469 C 24.355469 20.539062 24.390625 20.460938 24.394531 20.367188 C 24.398438 20.273438 24.363281 20.191406 24.296875 20.121094 C 24.234375 20.054688 24.152344 20.019531 24.058594 20.019531 Z M 24.058594 20.019531 " fill-opacity="1" fill-rule="nonzero"/></svg>